<svg width="220" height="209" viewBox="0 0 220 209" fill="none" xmlns="http://www.w3.org/2000/svg">
<mask id="path-1-outside-1_2006_1100" maskUnits="userSpaceOnUse" x="15" y="12" width="33" height="185" fill="black">
<rect fill="white" x="15" y="12" width="33" height="185"/>
<path d="M22.99 189.81H46.189V195.662H16.511V13.414H46.189V19.266H22.99V189.81Z"/>
</mask>
<path d="M22.99 189.81H46.189V195.662H16.511V13.414H46.189V19.266H22.99V189.81Z" fill="#DDEDFF"/>
<path d="M22.99 189.81H21.99V190.81H22.99V189.81ZM46.189 189.81H47.189V188.81H46.189V189.81ZM46.189 195.662V196.662H47.189V195.662H46.189ZM16.511 195.662H15.511V196.662H16.511V195.662ZM16.511 13.414V12.414H15.511V13.414H16.511ZM46.189 13.414H47.189V12.414H46.189V13.414ZM46.189 19.266V20.266H47.189V19.266H46.189ZM22.99 19.266V18.266H21.99V19.266H22.99ZM22.99 190.81H46.189V188.81H22.99V190.81ZM45.189 189.81V195.662H47.189V189.81H45.189ZM46.189 194.662H16.511V196.662H46.189V194.662ZM17.511 195.662V13.414H15.511V195.662H17.511ZM16.511 14.414H46.189V12.414H16.511V14.414ZM45.189 13.414V19.266H47.189V13.414H45.189ZM46.189 18.266H22.99V20.266H46.189V18.266ZM21.99 19.266V189.81H23.99V19.266H21.99Z" fill="#DDEDFF" mask="url(#path-1-outside-1_2006_1100)"/>
<line x1="20" y1="103.5" x2="220" y2="103.5" stroke="#DDEDFF" stroke-width="3"/>
</svg>
