<svg width="48" height="41" viewBox="0 0 48 41" fill="none" xmlns="http://www.w3.org/2000/svg">
<path d="M17.4233 2.81878C17.0009 2.49352 16.4798 2.32273 15.9468 2.33483C15.4138 2.34693 14.9011 2.54119 14.4938 2.88528L6.32717 9.88412C6.06793 10.1032 5.85962 10.3762 5.71675 10.6841C5.57389 10.992 5.49992 11.3274 5.5 11.6668V22.1668C5.5 22.7856 5.74583 23.3791 6.18342 23.8167C6.621 24.2543 7.21449 24.5001 7.83333 24.5001H24.1667C24.7855 24.5001 25.379 24.2543 25.8166 23.8167C26.2542 23.3791 26.5 22.7856 26.5 22.1668V13.5871" stroke="white" stroke-width="2" stroke-linecap="round" stroke-linejoin="round"/>
<path d="M19.5 24.5V15.1667C19.5 14.8572 19.3771 14.5605 19.1583 14.3417C18.9395 14.1229 18.6428 14 18.3333 14H13.6667C13.3572 14 13.0605 14.1229 12.8417 14.3417C12.6229 14.5605 12.5 14.8572 12.5 15.1667V24.5" stroke="white" stroke-width="2" stroke-linecap="round" stroke-linejoin="round"/>
<path d="M19.5 7H26.5" stroke="white" stroke-width="2" stroke-linecap="round" stroke-linejoin="round"/>
<path d="M23 3.5V10.5" stroke="white" stroke-width="2" stroke-linecap="round" stroke-linejoin="round"/>
<path d="M38 22H38.01" stroke="white" stroke-width="2" stroke-linecap="round" stroke-linejoin="round"/>
<path d="M25.4 33.0001H34C36.1217 33.0001 38.1566 32.1572 39.6569 30.6569C41.1571 29.1566 42 27.1218 42 25.0001V22.0001C42.0023 21.148 41.7323 20.3174 41.2296 19.6295C40.7269 18.9415 40.0175 18.432 39.205 18.1753C38.3925 17.9186 37.5193 17.9281 36.7125 18.2024C35.9058 18.4766 35.2077 19.0013 34.72 19.7001L24 35.0001" stroke="white" stroke-width="2" stroke-linecap="round" stroke-linejoin="round"/>
<path d="M42 22L44 22.5L42 23" stroke="white" stroke-width="2" stroke-linecap="round" stroke-linejoin="round"/>
<path d="M32 33V36" stroke="white" stroke-width="2" stroke-linecap="round" stroke-linejoin="round"/>
<path d="M36 32.75V36" stroke="white" stroke-width="2" stroke-linecap="round" stroke-linejoin="round"/>
<path d="M29 32.9999C30.2331 32.9998 31.4363 32.6198 32.4457 31.9116C33.4552 31.2034 34.2219 30.2013 34.6416 29.0418C35.0612 27.8823 35.1134 26.6216 34.7911 25.4314C34.4687 24.2412 33.7874 23.1792 32.84 22.3899" stroke="white" stroke-width="2" stroke-linecap="round" stroke-linejoin="round"/>
</svg>
