<svg width="36" height="36" viewBox="0 0 36 36" fill="none" xmlns="http://www.w3.org/2000/svg">
<path d="M18 33C26.2843 33 33 26.2843 33 18C33 9.71573 26.2843 3 18 3C9.71573 3 3 9.71573 3 18C3 26.2843 9.71573 33 18 33Z" fill="#D62E4C"/>
<path d="M9.76971 17.8134L24.4297 12.0703C25.1101 11.8205 25.7043 12.2389 25.4839 13.2843L25.4851 13.283L22.989 25.2315C22.804 26.0786 22.3086 26.2846 21.6155 25.8855L17.8143 23.039L15.9809 24.8337C15.7781 25.0397 15.6071 25.2135 15.2143 25.2135L15.4842 21.283L22.5291 14.8163C22.8357 14.5421 22.4607 14.3876 22.0565 14.6606L13.3504 20.2299L9.59739 19.0403C8.78266 18.7777 8.76493 18.2125 9.76971 17.8134Z" fill="#18353E"/>
</svg>
