<svg width="36" height="36" viewBox="0 0 36 36" fill="none" xmlns="http://www.w3.org/2000/svg">
<path d="M17.679 26.0452H19.4716C19.4716 26.0452 20.0135 25.9852 20.2892 25.687C20.5442 25.4133 20.5348 24.8995 20.5348 24.8995C20.5348 24.8995 20.4992 22.4937 21.6168 22.1393C22.7175 21.7905 24.1313 24.4644 25.6296 25.4939C26.7622 26.2721 27.6229 26.1014 27.6229 26.1014L31.63 26.0452C31.63 26.0452 33.7264 25.9158 32.7326 24.2675C32.652 24.1325 32.1532 23.0487 29.753 20.821C27.2403 18.4884 27.5779 18.8671 30.6043 14.8337C32.4476 12.3773 33.1845 10.8772 32.9539 10.2359C32.7345 9.62458 31.3788 9.78584 31.3788 9.78584L26.8709 9.81209C26.8709 9.81209 26.5371 9.76709 26.2878 9.91523C26.0459 10.0615 25.8902 10.399 25.8902 10.399C25.8902 10.399 25.1758 12.3004 24.2232 13.9168C22.215 17.3277 21.4105 17.5077 21.0824 17.2958C20.3192 16.8026 20.5105 15.3119 20.5105 14.2543C20.5105 10.9484 21.0111 9.5702 19.5335 9.21392C19.0422 9.09579 18.6822 9.01704 17.4277 9.00391C15.8189 8.98703 14.4556 9.00953 13.685 9.38644C13.1712 9.63771 12.7755 10.1984 13.0174 10.2303C13.3156 10.2696 13.9906 10.4121 14.3488 10.8997C14.8119 11.5278 14.795 12.9417 14.795 12.9417C14.795 12.9417 15.0613 16.8326 14.1744 17.3164C13.5649 17.6483 12.7305 16.9714 10.9398 13.8755C10.0228 12.291 9.32901 10.5378 9.32901 10.5378C9.32901 10.5378 9.19587 10.2115 8.95773 10.0371C8.66896 9.82522 8.26393 9.75772 8.26393 9.75772L3.97737 9.78397C3.97737 9.78397 3.33419 9.80272 3.09793 10.0821C2.88791 10.3315 3.08105 10.8453 3.08105 10.8453C3.08105 10.8453 6.43755 18.6965 10.2366 22.6549C13.7225 26.2833 17.679 26.0452 17.679 26.0452Z" fill="#D62E4C"/>
</svg>
